<?xml version="1.0" encoding="UTF-8"?>
<svg id="Layer_1" xmlns="http://www.w3.org/2000/svg" version="1.1" viewBox="0 0 4656.45 823">
  <!-- Generator: Adobe Illustrator 29.8.1, SVG Export Plug-In . SVG Version: 2.1.1 Build 2)  -->
  <defs>
    <style>
      .st0 {
        fill: #157ec0;
      }

      .st1, .st2 {
        isolation: isolate;
      }

      .st2 {
        font-family: Helvetica-Bold, Helvetica;
        font-size: 695.08px;
        font-weight: 700;
      }

      .st2, .st3 {
        fill: #177fbf;
      }

      .st4 {
        fill: #d53029;
      }
    </style>
  </defs>
  <g>
    <path class="st4" d="M1678.15,101.55l-11.67-11.67h-238.69v41.67c0,23.01,18.65,41.67,41.67,41.67h137.04l71.66-71.66h-.01Z"/>
    <path class="st3" d="M1886.12,89.88h-166.79l-26.43,26.43-.02-.02-56.93,56.93h.43v416.67h83.33V173.21h208.07v-41.67c0-23.01-18.65-41.67-41.67-41.67h.01Z"/>
  </g>
  <polygon class="st4" points="29.33 263.51 128.77 164.08 128.77 164.01 128.83 164.01 198.51 94.34 181.36 77.2 29.33 77.2 29.33 263.51"/>
  <path class="st0" d="M416.85,536.16c-1.8-8.14-2.69-23.62-2.69-46.46v-33.58c0-35.03-4.68-61.09-14.02-78.17-9.35-17.07-25.24-30.24-47.66-39.51,26.83-9.5,46.07-25.72,57.73-48.68s17.48-46.31,17.48-70.06c0-19.68-3.08-37.2-9.24-52.59-6.16-15.37-14.51-29.4-25.07-42.07-12.76-15.37-28.32-27.02-46.69-34.94-18.38-7.91-44.61-12.21-78.72-12.9h-22.88l-86.82,86.82h88.56c21.99,0,38.48,2.95,49.48,8.83,19.57,10.42,29.36,30.8,29.36,61.14,0,28.08-10.12,46.88-30.34,56.38-11.44,5.44-28.6,8.16-51.46,8.16h-115.13v-104.98l-99.43,99.43v284.22h99.43v-196.14h104.94c29.91,0,50.32,5.32,61.21,15.95,10.89,10.63,16.56,31.89,17,63.8l.66,46.49c.22,14.7,1.65,29.07,4.3,43.09,1.32,6.79,3.52,15.73,6.6,26.81h111.85v-12.55c-9.68-6.1-15.84-15.59-18.48-28.49h.03Z"/>
  <g class="st1">
    <text class="st2" transform="translate(435.33 576.68)"><tspan x="0" y="0">ob</tspan></text>
  </g>
  <g class="st1">
    <text class="st2" transform="translate(1781.87 589.88)"><tspan x="0" y="0">ompkins</tspan></text>
  </g>
</svg>