<?xml version="1.0" encoding="UTF-8"?>
<svg id="Layer_1" data-name="Layer 1" xmlns="http://www.w3.org/2000/svg" viewBox="0 0 1835.08 1051.03">
  <defs>
    <style>
      .cls-1 {
        font-size: 293.73px;
      }

      .cls-1, .cls-2 {
        font-family: Helvetica-Bold, Helvetica;
        font-weight: 700;
      }

      .cls-1, .cls-3 {
        fill: #167fbf;
      }

      .cls-4 {
        fill: #d5302a;
      }

      .cls-5 {
        fill: #d5302a;
      }

      .cls-2 {
        font-size: 314.75px;
      }

      .cls-2, .cls-6 {
        fill: #167fbe;
      }
    </style>
  </defs>
  <g>
    <path class="cls-5" d="M140.73,6.56l-6.56-6.56H0v23.42c0,12.93,10.49,23.42,23.42,23.42h77.03L140.73,6.56Z"/>
    <path class="cls-3" d="M257.63,0h-93.75l-14.85,14.85h-.01s-32,31.99-32,31.99h.24v234.21h46.84V46.84h116.96v-23.42c0-12.93-10.49-23.42-23.42-23.42Z"/>
  </g>
  <g>
    <path class="cls-3" d="M286.08,162.82c-16.39,0-27.4,5.34-33.02,16.01-3.15,6.01-4.72,15.25-4.72,27.73v74.48h-40.99V125.3h38.85v27.08c6.29-10.39,11.77-17.49,16.44-21.3,7.62-6.39,17.53-9.58,29.73-9.58.76,0,1.4.03,1.93.07.52.05,1.69.12,3.5.22v41.75c-2.58-.28-4.86-.48-6.86-.57-2-.09-3.62-.14-4.86-.14Z"/>
    <path class="cls-3" d="M421.7,259.17c-.38.48-1.34,1.9-2.87,4.28s-3.34,4.47-5.44,6.27c-6.4,5.71-12.58,9.61-18.55,11.7s-12.96,3.14-20.99,3.14c-23.12,0-38.69-8.29-46.71-24.88-4.49-9.15-6.73-22.63-6.73-40.46v-93.93h41.86v93.99c0,8.87,1.05,15.55,3.15,20.03,3.72,7.92,11.02,11.88,21.9,11.88,13.93,0,23.47-5.63,28.62-16.88,2.67-6.1,4.01-14.16,4.01-24.18v-84.83h41.28v155.75h-39.52v-21.87Z"/>
    <path class="cls-3" d="M571.67,252.07v30.45l-19.3.72c-19.29.66-32.46-2.67-39.53-10.01-4.58-4.67-6.88-11.86-6.88-21.58v-95.9h-21.73v-28.98h21.73v-43.46h40.4v43.46h25.3v28.98h-25.3v82.31c0,6.39.81,10.36,2.43,11.93s6.57,2.36,14.87,2.36c1.24,0,2.55-.02,3.93-.07s2.74-.12,4.08-.21Z"/>
    <path class="cls-3" d="M738.71,189.54v91.51h-41.57v-94.74c0-8.38-1.43-15.15-4.28-20.29-3.71-7.24-10.76-10.86-21.13-10.86s-18.92,3.6-24.49,10.79c-5.57,7.19-8.35,17.46-8.35,30.79v84.31h-40.69V71.09h40.69l-.1,74.48c5.91-9.08,12.75-15.4,20.52-18.98,7.77-3.58,15.94-5.37,24.51-5.37,9.62,0,18.37,1.67,26.23,5,7.86,3.34,14.32,8.44,19.37,15.3,4.29,5.82,6.91,11.8,7.86,17.95s1.43,16.18,1.43,30.09Z"/>
  </g>
  <g>
    <path class="cls-5" d="M484.45,343.31l-6.58-6.58h-134.61v23.5c0,12.98,10.52,23.5,23.5,23.5h77.28l40.41-40.41Z"/>
    <path class="cls-3" d="M601.73,336.73h-94.06l-14.9,14.9h-.01s-32.11,32.09-32.11,32.09h.24v234.98h47v-234.98h117.34v-23.5c0-12.98-10.52-23.5-23.5-23.5Z"/>
  </g>
  <text class="cls-1" transform="translate(532.49 618.71)"><tspan x="0" y="0">rust</tspan></text>
  <text class="cls-2" transform="translate(837.82 899.65)"><tspan x="0" y="0">espect</tspan></text>
  <polygon class="cls-4" points="639.6 757.76 685.97 711.39 685.97 711.36 686 711.36 718.49 678.87 710.5 670.88 639.6 670.88 639.6 757.76"/>
  <path class="cls-6" d="M820.3,884.89c-.84-3.8-1.25-11.01-1.25-21.67v-15.66c0-16.34-2.18-28.49-6.54-36.45-4.36-7.96-11.77-14.1-22.22-18.43,12.51-4.43,21.48-11.99,26.92-22.7,5.44-10.71,8.15-21.6,8.15-32.67,0-9.18-1.44-17.35-4.31-24.52-2.87-7.17-6.77-13.71-11.69-19.62-5.95-7.17-13.2-12.6-21.77-16.29-8.57-3.69-20.8-5.69-36.7-6.01h-10.67l-40.48,40.48h41.3c10.25,0,17.94,1.37,23.07,4.12,9.12,4.86,13.69,14.36,13.69,28.51,0,13.1-4.72,21.86-14.15,26.29-5.33,2.54-13.33,3.8-24,3.8h-53.68v-48.95l-46.36,46.37v132.53h46.36v-91.46h48.93c13.95,0,23.46,2.48,28.54,7.44,5.08,4.96,7.72,14.87,7.93,29.75l.31,21.68c.1,6.86.77,13.56,2,20.09.61,3.17,1.64,7.33,3.08,12.5h52.15v-5.85c-4.52-2.84-7.39-7.27-8.62-13.28Z"/>
</svg>